<mxfile host="app.diagrams.net" modified="2021-04-19T08:03:54.902Z" agent="5.0 (Windows NT 10.0; Win64; x64) AppleWebKit/537.36 (KHTML, like Gecko) Chrome/89.0.4389.128 Safari/537.36" etag="ReMXjhDtgdyTUWJxZZfU" version="14.2.4" type="github">
  <diagram id="C5RBs43oDa-KdzZeNtuy" name="Page-1">
    <mxGraphModel dx="1422" dy="706" grid="1" gridSize="10" guides="1" tooltips="1" connect="1" arrows="1" fold="1" page="1" pageScale="1" pageWidth="827" pageHeight="1169" math="0" shadow="0">
      <root>
        <mxCell id="WIyWlLk6GJQsqaUBKTNV-0" />
        <mxCell id="WIyWlLk6GJQsqaUBKTNV-1" parent="WIyWlLk6GJQsqaUBKTNV-0" />
        <mxCell id="ErYdBKpMSOjXuHRG2v-B-8" value="" style="rounded=0;whiteSpace=wrap;html=1;align=center;" parent="WIyWlLk6GJQsqaUBKTNV-1" vertex="1">
          <mxGeometry x="40" y="180" width="720" height="610" as="geometry" />
        </mxCell>
        <mxCell id="ErYdBKpMSOjXuHRG2v-B-22" style="edgeStyle=orthogonalEdgeStyle;rounded=0;orthogonalLoop=1;jettySize=auto;html=1;exitX=0.5;exitY=1;exitDx=0;exitDy=0;entryX=0.5;entryY=0;entryDx=0;entryDy=0;" parent="WIyWlLk6GJQsqaUBKTNV-1" source="ErYdBKpMSOjXuHRG2v-B-3" target="ErYdBKpMSOjXuHRG2v-B-7" edge="1">
          <mxGeometry relative="1" as="geometry" />
        </mxCell>
        <mxCell id="ErYdBKpMSOjXuHRG2v-B-3" value="排序算法：&lt;br&gt;hfsort、hfsort+、&lt;span lang=&quot;EN-US&quot; style=&quot;font-size: 10.5pt ; line-height: 150% ; font-family: &amp;#34;times new roman&amp;#34; , serif&quot;&gt;Pettis-Hansen&lt;/span&gt;" style="rounded=0;whiteSpace=wrap;html=1;align=center;" parent="WIyWlLk6GJQsqaUBKTNV-1" vertex="1">
          <mxGeometry x="340" y="610" width="200" height="40" as="geometry" />
        </mxCell>
        <mxCell id="ErYdBKpMSOjXuHRG2v-B-35" value="Y" style="edgeStyle=orthogonalEdgeStyle;rounded=0;orthogonalLoop=1;jettySize=auto;html=1;exitX=0.5;exitY=1;exitDx=0;exitDy=0;entryX=0.5;entryY=0;entryDx=0;entryDy=0;" parent="WIyWlLk6GJQsqaUBKTNV-1" source="ErYdBKpMSOjXuHRG2v-B-4" target="ErYdBKpMSOjXuHRG2v-B-30" edge="1">
          <mxGeometry x="-0.3333" y="10" relative="1" as="geometry">
            <mxPoint as="offset" />
          </mxGeometry>
        </mxCell>
        <mxCell id="ErYdBKpMSOjXuHRG2v-B-38" value="N" style="edgeStyle=orthogonalEdgeStyle;rounded=0;orthogonalLoop=1;jettySize=auto;html=1;exitX=1;exitY=0.5;exitDx=0;exitDy=0;entryX=0.5;entryY=0;entryDx=0;entryDy=0;" parent="WIyWlLk6GJQsqaUBKTNV-1" source="ErYdBKpMSOjXuHRG2v-B-4" target="ErYdBKpMSOjXuHRG2v-B-18" edge="1">
          <mxGeometry x="-0.2544" y="9" relative="1" as="geometry">
            <mxPoint as="offset" />
          </mxGeometry>
        </mxCell>
        <mxCell id="ErYdBKpMSOjXuHRG2v-B-4" value="callchain在.o文件内" style="rhombus;whiteSpace=wrap;html=1;align=center;" parent="WIyWlLk6GJQsqaUBKTNV-1" vertex="1">
          <mxGeometry x="355" y="388.75" width="170" height="41.25" as="geometry" />
        </mxCell>
        <mxCell id="ErYdBKpMSOjXuHRG2v-B-34" style="edgeStyle=orthogonalEdgeStyle;rounded=0;orthogonalLoop=1;jettySize=auto;html=1;exitX=0.5;exitY=1;exitDx=0;exitDy=0;entryX=0.5;entryY=0;entryDx=0;entryDy=0;" parent="WIyWlLk6GJQsqaUBKTNV-1" source="ErYdBKpMSOjXuHRG2v-B-5" target="ErYdBKpMSOjXuHRG2v-B-4" edge="1">
          <mxGeometry relative="1" as="geometry" />
        </mxCell>
        <mxCell id="ErYdBKpMSOjXuHRG2v-B-5" value="&lt;font style=&quot;font-size: 12px&quot;&gt;读取单个.o文件，记录函数&lt;/font&gt;&lt;span lang=&quot;EN-US&quot; style=&quot;line-height: 150%&quot;&gt;&lt;font style=&quot;font-size: 12px&quot;&gt;&lt;font face=&quot;times new roman, serif&quot;&gt;section;&lt;/font&gt;&lt;br&gt;记录函数地址（虚拟）及大小；&lt;/font&gt;&lt;br&gt;&lt;/span&gt;" style="rounded=0;whiteSpace=wrap;html=1;align=center;" parent="WIyWlLk6GJQsqaUBKTNV-1" vertex="1">
          <mxGeometry x="340" y="330" width="200" height="45" as="geometry" />
        </mxCell>
        <mxCell id="ErYdBKpMSOjXuHRG2v-B-21" style="edgeStyle=orthogonalEdgeStyle;rounded=0;orthogonalLoop=1;jettySize=auto;html=1;exitX=0.5;exitY=1;exitDx=0;exitDy=0;entryX=0.5;entryY=0;entryDx=0;entryDy=0;" parent="WIyWlLk6GJQsqaUBKTNV-1" source="ErYdBKpMSOjXuHRG2v-B-6" target="ErYdBKpMSOjXuHRG2v-B-3" edge="1">
          <mxGeometry relative="1" as="geometry" />
        </mxCell>
        <mxCell id="ErYdBKpMSOjXuHRG2v-B-6" value="&lt;font style=&quot;vertical-align: inherit&quot;&gt;&lt;font style=&quot;vertical-align: inherit&quot;&gt;所有Elf文件已处理完毕&lt;/font&gt;&lt;/font&gt;" style="rounded=0;whiteSpace=wrap;html=1;align=center;" parent="WIyWlLk6GJQsqaUBKTNV-1" vertex="1">
          <mxGeometry x="340" y="537" width="200" height="47.5" as="geometry" />
        </mxCell>
        <mxCell id="ErYdBKpMSOjXuHRG2v-B-37" style="edgeStyle=orthogonalEdgeStyle;rounded=0;orthogonalLoop=1;jettySize=auto;html=1;exitX=0.5;exitY=1;exitDx=0;exitDy=0;entryX=0.5;entryY=0;entryDx=0;entryDy=0;" parent="WIyWlLk6GJQsqaUBKTNV-1" source="ErYdBKpMSOjXuHRG2v-B-7" target="ErYdBKpMSOjXuHRG2v-B-24" edge="1">
          <mxGeometry relative="1" as="geometry" />
        </mxCell>
        <mxCell id="ErYdBKpMSOjXuHRG2v-B-7" value="查找排序函数的对应的&lt;span lang=&quot;EN-US&quot; style=&quot;font-size: 10.5pt ; line-height: 150% ; font-family: &amp;#34;times new roman&amp;#34; , serif&quot;&gt;section&lt;/span&gt;&lt;br&gt;，按顺序写入&lt;span lang=&quot;EN-US&quot; style=&quot;font-size: 10.5pt ; line-height: 150% ; font-family: &amp;#34;times new roman&amp;#34; , serif&quot;&gt;section_list&lt;/span&gt;" style="rounded=0;whiteSpace=wrap;html=1;align=center;" parent="WIyWlLk6GJQsqaUBKTNV-1" vertex="1">
          <mxGeometry x="340" y="670" width="200" height="47.5" as="geometry" />
        </mxCell>
        <mxCell id="ErYdBKpMSOjXuHRG2v-B-11" value="gold链接器插件API接口" style="rounded=0;whiteSpace=wrap;html=1;align=center;verticalAlign=top;" parent="WIyWlLk6GJQsqaUBKTNV-1" vertex="1">
          <mxGeometry x="70" y="190" width="240" height="590" as="geometry" />
        </mxCell>
        <mxCell id="ErYdBKpMSOjXuHRG2v-B-41" style="edgeStyle=orthogonalEdgeStyle;rounded=0;orthogonalLoop=1;jettySize=auto;html=1;exitX=0.5;exitY=1;exitDx=0;exitDy=0;entryX=0.5;entryY=0;entryDx=0;entryDy=0;" parent="WIyWlLk6GJQsqaUBKTNV-1" source="ErYdBKpMSOjXuHRG2v-B-12" target="ErYdBKpMSOjXuHRG2v-B-13" edge="1">
          <mxGeometry relative="1" as="geometry" />
        </mxCell>
        <mxCell id="ErYdBKpMSOjXuHRG2v-B-12" value="&lt;p class=&quot;MsoNormal&quot; style=&quot;text-indent: 21.0pt ; line-height: normal&quot;&gt;&lt;span style=&quot;text-indent: 21pt&quot;&gt;onload&lt;/span&gt;&lt;br&gt;&lt;/p&gt;" style="rounded=0;whiteSpace=wrap;html=1;align=center;" parent="WIyWlLk6GJQsqaUBKTNV-1" vertex="1">
          <mxGeometry x="80" y="270" width="210" height="30" as="geometry" />
        </mxCell>
        <mxCell id="ErYdBKpMSOjXuHRG2v-B-42" style="edgeStyle=orthogonalEdgeStyle;rounded=0;orthogonalLoop=1;jettySize=auto;html=1;exitX=0.5;exitY=1;exitDx=0;exitDy=0;entryX=0.5;entryY=0;entryDx=0;entryDy=0;" parent="WIyWlLk6GJQsqaUBKTNV-1" source="ErYdBKpMSOjXuHRG2v-B-13" target="ErYdBKpMSOjXuHRG2v-B-14" edge="1">
          <mxGeometry relative="1" as="geometry" />
        </mxCell>
        <mxCell id="ErYdBKpMSOjXuHRG2v-B-13" value="&lt;span lang=&quot;EN-US&quot; style=&quot;font-size: 10.5pt ; line-height: 150% ; font-family: &amp;#34;times new roman&amp;#34; , serif&quot;&gt;claim_file_hook&lt;/span&gt;" style="rounded=0;whiteSpace=wrap;html=1;align=center;" parent="WIyWlLk6GJQsqaUBKTNV-1" vertex="1">
          <mxGeometry x="80" y="337.5" width="210" height="30" as="geometry" />
        </mxCell>
        <mxCell id="ErYdBKpMSOjXuHRG2v-B-43" style="edgeStyle=orthogonalEdgeStyle;rounded=0;orthogonalLoop=1;jettySize=auto;html=1;exitX=0.5;exitY=1;exitDx=0;exitDy=0;entryX=0.5;entryY=0;entryDx=0;entryDy=0;" parent="WIyWlLk6GJQsqaUBKTNV-1" source="ErYdBKpMSOjXuHRG2v-B-14" target="ErYdBKpMSOjXuHRG2v-B-15" edge="1">
          <mxGeometry relative="1" as="geometry" />
        </mxCell>
        <mxCell id="ErYdBKpMSOjXuHRG2v-B-14" value="&lt;span lang=&quot;EN-US&quot; style=&quot;font-size: 10.5pt ; line-height: 150% ; font-family: &amp;#34;times new roman&amp;#34; , serif&quot;&gt;all_symbols_read_hook&lt;/span&gt;" style="rounded=0;whiteSpace=wrap;html=1;align=center;" parent="WIyWlLk6GJQsqaUBKTNV-1" vertex="1">
          <mxGeometry x="80" y="545.75" width="210" height="30" as="geometry" />
        </mxCell>
        <mxCell id="ErYdBKpMSOjXuHRG2v-B-15" value="&lt;span lang=&quot;EN-US&quot; style=&quot;font-size: 10.5pt ; line-height: 150% ; font-family: &amp;#34;times new roman&amp;#34; , serif&quot;&gt;update_section_order&lt;/span&gt;" style="rounded=0;whiteSpace=wrap;html=1;align=center;" parent="WIyWlLk6GJQsqaUBKTNV-1" vertex="1">
          <mxGeometry x="80" y="740" width="210" height="30" as="geometry" />
        </mxCell>
        <mxCell id="ErYdBKpMSOjXuHRG2v-B-39" style="edgeStyle=orthogonalEdgeStyle;rounded=0;orthogonalLoop=1;jettySize=auto;html=1;exitX=0.5;exitY=1;exitDx=0;exitDy=0;entryX=0.5;entryY=0;entryDx=0;entryDy=0;" parent="WIyWlLk6GJQsqaUBKTNV-1" source="ErYdBKpMSOjXuHRG2v-B-18" target="ErYdBKpMSOjXuHRG2v-B-6" edge="1">
          <mxGeometry relative="1" as="geometry">
            <Array as="points">
              <mxPoint x="650" y="520" />
              <mxPoint x="440" y="520" />
            </Array>
          </mxGeometry>
        </mxCell>
        <mxCell id="ErYdBKpMSOjXuHRG2v-B-18" value="解析perf.data，生成callchain&lt;br&gt;（保留每个sample的二级调用栈）" style="rounded=0;whiteSpace=wrap;html=1;align=center;" parent="WIyWlLk6GJQsqaUBKTNV-1" vertex="1">
          <mxGeometry x="550" y="458.75" width="200" height="48.75" as="geometry" />
        </mxCell>
        <mxCell id="ErYdBKpMSOjXuHRG2v-B-24" value="&lt;span lang=&quot;EN-US&quot; style=&quot;line-height: 150%&quot;&gt;调用插件API接口，完成函数&lt;/span&gt;&lt;font style=&quot;font-size: 12px&quot;&gt;重排&lt;/font&gt;" style="rounded=0;whiteSpace=wrap;html=1;align=center;" parent="WIyWlLk6GJQsqaUBKTNV-1" vertex="1">
          <mxGeometry x="340" y="731.25" width="200" height="47.5" as="geometry" />
        </mxCell>
        <mxCell id="ErYdBKpMSOjXuHRG2v-B-33" style="edgeStyle=orthogonalEdgeStyle;rounded=0;orthogonalLoop=1;jettySize=auto;html=1;exitX=0.5;exitY=1;exitDx=0;exitDy=0;entryX=0.5;entryY=0;entryDx=0;entryDy=0;" parent="WIyWlLk6GJQsqaUBKTNV-1" source="ErYdBKpMSOjXuHRG2v-B-28" target="ErYdBKpMSOjXuHRG2v-B-5" edge="1">
          <mxGeometry relative="1" as="geometry" />
        </mxCell>
        <mxCell id="ErYdBKpMSOjXuHRG2v-B-28" value="读取并解析插件传入参数，完成相关变量初始化" style="rounded=0;whiteSpace=wrap;html=1;align=center;" parent="WIyWlLk6GJQsqaUBKTNV-1" vertex="1">
          <mxGeometry x="340" y="261.25" width="200" height="47.5" as="geometry" />
        </mxCell>
        <mxCell id="ErYdBKpMSOjXuHRG2v-B-36" style="edgeStyle=orthogonalEdgeStyle;rounded=0;orthogonalLoop=1;jettySize=auto;html=1;exitX=0.5;exitY=1;exitDx=0;exitDy=0;entryX=0.5;entryY=0;entryDx=0;entryDy=0;" parent="WIyWlLk6GJQsqaUBKTNV-1" source="ErYdBKpMSOjXuHRG2v-B-30" target="ErYdBKpMSOjXuHRG2v-B-6" edge="1">
          <mxGeometry relative="1" as="geometry" />
        </mxCell>
        <mxCell id="ErYdBKpMSOjXuHRG2v-B-30" value="解析.o文件中存储的callchain&lt;br&gt;（数据来源于PGO或者AutoFDO）" style="rounded=0;whiteSpace=wrap;html=1;align=center;" parent="WIyWlLk6GJQsqaUBKTNV-1" vertex="1">
          <mxGeometry x="340" y="460" width="200" height="47.5" as="geometry" />
        </mxCell>
        <mxCell id="ErYdBKpMSOjXuHRG2v-B-40" style="edgeStyle=orthogonalEdgeStyle;rounded=0;orthogonalLoop=1;jettySize=auto;html=1;exitX=0.5;exitY=1;exitDx=0;exitDy=0;" parent="WIyWlLk6GJQsqaUBKTNV-1" source="ErYdBKpMSOjXuHRG2v-B-4" target="ErYdBKpMSOjXuHRG2v-B-4" edge="1">
          <mxGeometry relative="1" as="geometry" />
        </mxCell>
      </root>
    </mxGraphModel>
  </diagram>
</mxfile>
